HIERARCHY
ROOT Hips
{
	OFFSET 173.408295 91.952423 -518.280273
	CHANNELS 6 Xposition Yposition Zposition Zrotation Yrotation Xrotation 
	JOINT LeftUpLeg
	{
		OFFSET 0.103459 1.857827 10.548504
		CHANNELS 3 Zrotation Yrotation Xrotation
		JOINT LeftLeg
		{
			OFFSET 43.500008 0.000000 0.000004
			CHANNELS 3 Zrotation Yrotation Xrotation
			JOINT LeftFoot
			{
				OFFSET 42.372192 0.000011 0.000000
				CHANNELS 3 Zrotation Yrotation Xrotation
				JOINT LeftToe
				{
					OFFSET 17.299973 -0.000013 -0.000010
					CHANNELS 3 Zrotation Yrotation Xrotation
					End Site
					{
						OFFSET 0.000000 0.000000 0.000000
					}
				}
			}
		}
	}
	JOINT RightUpLeg
	{
		OFFSET 0.103454 1.857830 -10.548500
		CHANNELS 3 Zrotation Yrotation Xrotation
		JOINT RightLeg
		{
			OFFSET 43.500038 -0.000038 0.000004
			CHANNELS 3 Zrotation Yrotation Xrotation
			JOINT RightFoot
			{
				OFFSET 42.372253 0.000019 0.000024
				CHANNELS 3 Zrotation Yrotation Xrotation
				JOINT RightToe
				{
					OFFSET 17.299988 -0.000007 0.000004
					CHANNELS 3 Zrotation Yrotation Xrotation
					End Site
					{
						OFFSET 0.000000 0.000000 0.000000
					}
				}
			}
		}
	}
	JOINT Spine
	{
		OFFSET 6.901963 -2.603744 0.000004
		CHANNELS 3 Zrotation Yrotation Xrotation
		JOINT Spine1
		{
			OFFSET 12.588104 0.000008 -0.000010
			CHANNELS 3 Zrotation Yrotation Xrotation
			JOINT Spine2
			{
				OFFSET 12.343202 -0.000005 0.000010
				CHANNELS 3 Zrotation Yrotation Xrotation
				JOINT Neck
				{
					OFFSET 25.832897 0.000000 0.000001
					CHANNELS 3 Zrotation Yrotation Xrotation
					JOINT Head
					{
						OFFSET 11.766611 -0.000006 -0.000000
						CHANNELS 3 Zrotation Yrotation Xrotation
						End Site
						{
							OFFSET 0.000000 0.000000 0.000000
						}
					}
				}
				JOINT LeftShoulder
				{
					OFFSET 19.745899 -1.480366 6.000108
					CHANNELS 3 Zrotation Yrotation Xrotation
					JOINT LeftArm
					{
						OFFSET 11.284111 -0.000018 -0.000015
						CHANNELS 3 Zrotation Yrotation Xrotation
						JOINT LeftForeArm
						{
							OFFSET 33.000050 -0.000005 0.000028
							CHANNELS 3 Zrotation Yrotation Xrotation
							JOINT LeftHand
							{
								OFFSET 25.200012 0.000000 0.000002
								CHANNELS 3 Zrotation Yrotation Xrotation
								End Site
								{
									OFFSET 0.000000 0.000000 0.000000
								}
							}
						}
					}
				}
				JOINT RightShoulder
				{
					OFFSET 19.746111 -1.480335 -6.000074
					CHANNELS 3 Zrotation Yrotation Xrotation
					JOINT RightArm
					{
						OFFSET 11.284151 0.000036 0.000001
						CHANNELS 3 Zrotation Yrotation Xrotation
						JOINT RightForeArm
						{
							OFFSET 33.000092 -0.000035 0.000022
							CHANNELS 3 Zrotation Yrotation Xrotation
							JOINT RightHand
							{
								OFFSET 25.199768 0.000178 0.000417
								CHANNELS 3 Zrotation Yrotation Xrotation
								End Site
								{
									OFFSET 0.000000 0.000000 0.000000
								}
							}
						}
					}
				}
			}
		}
	}
}
MOTION
Frames: 11
Frame Time: 0.033333
206.598694 89.610451 346.888306 88.370907 0.953171 -177.687931 155.116287 2.457199 176.390742 -17.264577 1.496235 2.643384 60.843257 -1.112173 1.901731 21.454553 0.003092 -0.000000 -172.623906 -3.019805 -176.965939 -19.822993 4.480114 3.406349 78.778739 -2.104039 1.657283 21.454560 -0.003108 -0.000018 5.872320 0.443832 0.359854 1.734618 0.882379 0.726082 1.416510 0.886885 0.720741 3.826697 11.620659 -2.058218 30.178019 -13.560138 -1.326976 159.565568 -79.719277 19.182433 -5.851614 36.480836 65.009952 -78.524841 -6.985016 2.292425 -57.604217 -11.465150 66.238369 -157.513328 76.832081 24.415201 1.145049 -37.476763 -70.539120 -79.298223 8.964445 -2.501580 -64.899132 35.915160 -57.270549 
208.700897 89.906441 346.621887 88.353456 0.201796 -178.297977 156.426782 2.913193 174.218509 -17.541726 1.619695 3.408173 61.938457 -1.284705 2.866222 21.454553 0.003092 0.000000 -173.143834 -1.776504 -175.989318 -22.771229 3.906296 2.356030 75.803632 -0.830022 3.381870 21.454562 -0.003106 -0.000019 5.854802 0.230329 0.388851 1.698346 0.455104 0.780911 1.380265 0.459949 0.778150 4.144986 11.029061 -1.869201 30.521219 -14.049834 -1.329818 157.801713 -79.920084 20.960346 -7.216184 35.455324 65.724916 -79.451137 -6.869778 2.324049 -56.473093 -12.418643 65.655651 -156.488486 77.492116 25.447417 1.989219 -38.501080 -70.591480 -79.034926 9.052312 -2.496314 -63.746333 35.010884 -56.949175 
210.724106 90.057129 346.367401 88.413691 -0.547353 -179.045595 157.606984 3.370804 173.384202 -18.143071 1.447362 3.343402 63.358918 -1.097849 3.274798 21.454550 0.003092 -0.000000 -174.279489 -0.404098 -174.785238 -26.830800 3.079042 0.919897 72.742252 0.805836 4.935333 21.454557 -0.003109 -0.000019 5.851417 0.056322 0.417534 1.690382 0.106733 0.835814 1.372326 0.111915 0.835155 4.361970 10.390871 -1.580213 30.789277 -14.856652 -1.244477 157.076469 -80.001425 21.690975 -8.420858 34.443179 66.197408 -80.519939 -6.729735 2.360254 -54.547021 -12.730177 64.652535 -156.672395 78.194027 25.246051 2.934240 -38.648834 -70.712190 -79.579613 8.952151 -2.512921 -62.179385 34.162878 -56.487235 
212.682297 90.065132 346.108307 88.628965 -1.466983 -179.836299 158.740249 4.009201 173.654240 -19.040675 0.955936 2.640527 65.002910 -0.617735 3.282263 21.454550 0.003092 -0.000000 -176.316580 1.359298 -173.727569 -32.605496 2.224466 -0.443145 69.327308 2.551875 6.511643 21.454562 -0.003108 -0.000019 5.895471 -0.164703 0.419483 1.776890 -0.335636 0.836487 1.458802 -0.330442 0.838500 4.453213 10.008350 -1.234950 30.834199 -15.665247 -1.030438 156.490057 -80.026950 22.283641 -9.519787 33.593418 66.383428 -81.298178 -6.573980 2.383006 -53.276756 -12.656336 63.893606 -157.930844 78.565064 23.958328 3.118947 -38.303021 -70.782664 -80.047741 8.862376 -2.526982 -61.163579 33.731504 -56.153755 
214.503403 89.813560 345.822113 88.915423 -2.874696 179.297424 159.505435 5.153702 174.133501 -20.520405 0.379880 1.672033 66.918034 -0.020528 3.126032 21.454553 0.003092 0.000000 -179.487604 3.982194 -173.259578 -40.378227 1.585628 -1.632956 66.054691 4.591140 8.847891 21.454558 -0.003110 -0.000018 5.972367 -0.519616 0.405060 1.928321 -1.045732 0.801732 1.610183 -1.040735 0.808034 4.425073 9.991886 -0.899561 30.650788 -16.367708 -0.727147 155.304513 -80.038909 23.483673 -10.551074 32.794501 66.605402 -81.690797 -6.413452 2.388812 -53.057275 -12.910465 63.473173 -159.447679 78.605266 22.414159 2.369910 -37.982006 -70.770397 -79.881849 8.912553 -2.523269 -61.270007 33.557556 -56.289191 
216.176193 89.413033 345.528900 89.142363 -4.589345 178.390621 159.958331 6.625307 174.205054 -22.146279 -0.106416 0.851652 68.834517 0.467699 2.974678 21.454553 0.003092 -0.000000 176.356823 7.151702 -173.471819 -49.078010 1.039954 -2.534444 62.196256 7.150841 12.285640 21.454541 -0.003109 -0.000012 6.043912 -0.958490 0.374077 2.069119 -1.923360 0.731588 1.750869 -1.918769 0.743194 4.295766 10.193641 -0.572531 30.364934 -17.012331 -0.372702 154.041161 -79.987512 24.765632 -11.520794 31.924250 67.080551 -81.859578 -6.259953 2.385427 -53.559137 -13.825911 63.182679 -161.163313 78.462625 20.670225 1.056298 -37.826831 -70.740679 -79.165444 9.067553 -2.503019 -62.267659 33.515916 -56.900021 
217.813705 89.097076 345.273102 89.320426 -6.153833 177.518310 160.585356 7.962799 173.792511 -23.193905 -0.469590 0.387907 70.434277 0.745464 2.934357 21.454551 0.003092 0.000000 171.651328 9.943298 -174.055391 -57.440955 0.270012 -3.017903 57.478064 9.199558 14.362068 21.454551 -0.003109 -0.000018 6.097944 -1.366937 0.321374 2.176258 -2.739551 0.617899 1.857797 -2.735632 0.634444 4.132636 10.369951 -0.223731 30.054349 -17.581663 0.015343 153.037505 -79.857643 25.788969 -12.262432 31.108619 67.744296 -81.938405 -6.143891 2.380749 -54.498646 -15.074094 63.112512 -163.329713 78.223295 18.467228 -0.374740 -37.700698 -70.853766 -78.308863 9.219430 -2.476595 -63.461364 33.836463 -57.610535 
219.385101 88.853432 345.100311 89.462098 -7.483280 176.799010 161.361648 9.071795 173.076188 -23.766499 -0.721542 0.263127 71.725538 0.809958 2.958790 21.454557 0.003092 0.000000 166.962321 12.136995 -174.925038 -64.489977 -0.617953 -2.833382 52.737263 10.357950 15.268295 21.454553 -0.003109 -0.000017 6.139827 -1.701796 0.238694 2.261157 -3.407851 0.445186 1.942466 -3.404964 0.465782 4.039665 10.386599 0.133998 29.704056 -18.046999 0.401439 151.863806 -79.693609 26.986542 -12.616743 30.508853 68.409658 -81.916931 -6.084153 2.375661 -55.622544 -16.141672 63.378910 -165.408699 77.933613 16.351809 -1.649366 -37.415582 -71.152014 -77.698927 9.310408 -2.456665 -64.344296 34.635804 -58.106612 
220.916595 88.720207 345.053589 89.577774 -8.262271 176.421696 162.289912 9.695800 172.470323 -24.054364 -0.866791 0.396198 72.800924 0.699687 2.993298 21.454551 0.003092 -0.000000 162.781467 13.379197 -175.891878 -69.989174 -1.312280 -2.625934 52.826175 9.881645 14.639062 21.454545 -0.003113 -0.000014 6.175264 -1.882729 0.127898 2.335321 -3.767639 0.218873 2.016476 -3.766111 0.241657 4.073065 10.297320 0.432732 29.326524 -18.489232 0.713881 150.236322 -79.567585 28.641637 -12.686430 30.292797 68.996344 -81.732421 -6.059696 2.365970 -56.567883 -16.887438 63.770901 -166.413912 77.670753 15.328802 -2.574152 -37.052236 -71.322693 -77.526704 9.345121 -2.451692 -64.766552 35.366112 -58.347601 
222.405807 88.635323 345.144989 89.644027 -8.570214 176.497921 163.079741 9.908098 172.097681 -24.602176 -0.886082 0.709694 73.775011 0.452282 2.990541 21.454551 0.003092 -0.000000 159.194989 13.808899 -176.838884 -73.256251 -1.520820 -2.712356 59.380066 7.928034 12.560452 21.454551 -0.003111 -0.000013 6.209155 -1.928775 -0.008263 2.407728 -3.857016 -0.055697 2.088849 -3.857144 -0.032366 4.197850 10.277673 0.622577 28.968147 -18.977892 0.918498 148.441184 -79.511195 30.461889 -12.728497 30.365119 69.596622 -81.410678 -6.031536 2.350083 -57.096341 -17.554954 64.046650 -165.875584 77.474166 15.878511 -3.006509 -36.707940 -70.970365 -77.757722 9.345072 -2.461609 -64.772774 35.236676 -58.443695 
223.918900 88.727348 345.364990 89.651670 -8.310388 177.023627 163.973308 9.609406 171.982442 -25.031532 -0.791901 1.213722 74.505910 0.071598 2.968129 21.454555 0.003092 0.000000 156.644952 13.596208 -177.543869 -73.357017 -1.260037 -1.806736 65.345192 6.086210 11.713879 21.454548 -0.003107 -0.000018 6.244537 -1.840859 -0.156437 2.483120 -3.678071 -0.351583 2.164323 -3.679992 -0.329334 4.316815 10.466511 0.693202 28.625635 -19.444615 1.036018 146.610516 -79.538898 32.312604 -12.834703 30.690615 70.243906 -81.053247 -5.994128 2.332047 -57.230227 -18.317606 64.147627 -164.085473 77.298603 17.705112 -2.996741 -36.502464 -70.050953 -78.229169 9.320112 -2.480162 -64.434352 34.126589 -58.435205 
